<svg width="12" height="17" viewBox="0 0 12 17" fill="none" xmlns="http://www.w3.org/2000/svg">
<path fill-rule="evenodd" clip-rule="evenodd" d="M5.88759 0.281982C4.41416 0.281982 3.00108 0.861445 1.95922 1.8929C0.917347 2.92435 0.332031 4.32329 0.332031 5.78198C0.332031 7.03598 0.954253 8.51878 1.86203 10.1094C2.78092 11.7187 4.04759 13.5271 5.43536 15.4521L5.88759 16.0791L6.33981 15.4521C7.7287 13.5271 8.99425 11.7187 9.91314 10.1094C10.8209 8.51878 11.4431 7.03598 11.4431 5.78198C11.4431 5.05971 11.2994 4.34451 11.0203 3.67722C10.7411 3.00993 10.3318 2.40362 9.81596 1.8929C9.30008 1.38217 8.68764 0.977046 8.01361 0.700645C7.33957 0.424244 6.61715 0.281982 5.88759 0.281982ZM5.88759 3.03198C5.15087 3.03198 4.44434 3.32171 3.9234 3.83744C3.40247 4.35316 3.10981 5.05264 3.10981 5.78198C3.10981 6.51133 3.40247 7.2108 3.9234 7.72653C4.44434 8.24225 5.15087 8.53198 5.88759 8.53198C6.6243 8.53198 7.33084 8.24225 7.85177 7.72653C8.37271 7.2108 8.66536 6.51133 8.66536 5.78198C8.66536 5.05264 8.37271 4.35316 7.85177 3.83744C7.33084 3.32171 6.6243 3.03198 5.88759 3.03198Z" fill="white"/>
</svg>
