<svg width="26" height="20" viewBox="0 0 26 20" fill="none" xmlns="http://www.w3.org/2000/svg">
<path d="M20.8897 19.4552C19.0368 19.3356 17.7218 18.6483 16.9448 17.3931C16.1678 16.1379 15.7793 14.7333 15.7793 13.1793C15.7793 11.2069 16.1379 9.35403 16.8552 7.62069C17.6322 5.82759 18.6483 4.27356 19.9034 2.95863C21.1586 1.58391 22.5632 0.597704 24.1172 0L26 2.6C25.223 3.07816 24.4759 3.73563 23.7586 4.57241C23.0414 5.34943 22.3839 6.21609 21.7862 7.17242C21.2483 8.12874 20.8897 9.14483 20.7103 10.2207C21.6069 10.2207 22.4138 10.4 23.131 10.7586C23.908 11.0575 24.5057 11.5356 24.9241 12.1931C25.4023 12.8506 25.6414 13.7172 25.6414 14.7931C25.6414 16.2276 25.1931 17.3632 24.2965 18.2C23.4 19.0368 22.2644 19.4552 20.8897 19.4552ZM5.2 19.4552C3.28736 19.3954 1.94253 18.7379 1.16552 17.4828C0.388506 16.1678 0 14.7333 0 13.1793C0 11.2069 0.358621 9.35403 1.07586 7.62069C1.85287 5.82759 2.86897 4.27356 4.12414 2.95863C5.37931 1.58391 6.78391 0.597704 8.33793 0L10.2207 2.6C9.44368 3.07816 8.69655 3.73563 7.97931 4.57241C7.26207 5.34943 6.6046 6.21609 6.0069 7.17242C5.46897 8.12874 5.11034 9.14483 4.93103 10.2207C5.82759 10.2207 6.63448 10.4 7.35172 10.7586C8.12874 11.0575 8.72644 11.5356 9.14483 12.1931C9.62299 12.8506 9.86207 13.7172 9.86207 14.7931C9.86207 16.2276 9.38391 17.3632 8.42759 18.2C7.53103 19.0368 6.45517 19.4552 5.2 19.4552Z" fill="black"/>
</svg>
