<svg width="26" height="20" viewBox="0 0 26 20" fill="none" xmlns="http://www.w3.org/2000/svg">
<path d="M5.11035 19.4552C6.96322 19.3356 8.27816 18.6483 9.05517 17.3931C9.83218 16.1379 10.2207 14.7333 10.2207 13.1793C10.2207 11.2069 9.86207 9.35403 9.14483 7.62069C8.36782 5.82759 7.35172 4.27356 6.09655 2.95863C4.84138 1.58391 3.43678 0.597704 1.88276 0L1.90735e-06 2.6C0.777014 3.07816 1.52414 3.73563 2.24138 4.57241C2.95862 5.34943 3.61609 6.21609 4.21379 7.17242C4.75172 8.12874 5.11034 9.14483 5.28965 10.2207C4.3931 10.2207 3.58621 10.4 2.86897 10.7586C2.09196 11.0575 1.49425 11.5356 1.07586 12.1931C0.597702 12.8506 0.358624 13.7172 0.358624 14.7931C0.358624 16.2276 0.8069 17.3632 1.70345 18.2C2.6 19.0368 3.73563 19.4552 5.11035 19.4552ZM20.8 19.4552C22.7126 19.3954 24.0575 18.7379 24.8345 17.4828C25.6115 16.1678 26 14.7333 26 13.1793C26 11.2069 25.6414 9.35403 24.9241 7.62069C24.1471 5.82759 23.131 4.27356 21.8759 2.95863C20.6207 1.58391 19.2161 0.597704 17.6621 0L15.7793 2.6C16.5563 3.07816 17.3034 3.73563 18.0207 4.57241C18.7379 5.34943 19.3954 6.21609 19.9931 7.17242C20.531 8.12874 20.8897 9.14483 21.069 10.2207C20.1724 10.2207 19.3655 10.4 18.6483 10.7586C17.8713 11.0575 17.2736 11.5356 16.8552 12.1931C16.377 12.8506 16.1379 13.7172 16.1379 14.7931C16.1379 16.2276 16.6161 17.3632 17.5724 18.2C18.469 19.0368 19.5448 19.4552 20.8 19.4552Z" fill="black"/>
</svg>
